<?xml version="1.0" standalone="no"?>
<!DOCTYPE svg PUBLIC "-//W3C//DTD SVG 20010904//EN"
 "http://www.w3.org/TR/2001/REC-SVG-20010904/DTD/svg10.dtd">
<svg version="1.0" xmlns="http://www.w3.org/2000/svg"
 width="1024.000000pt" height="1024.000000pt" viewBox="0 0 1024.000000 1024.000000"
 preserveAspectRatio="xMidYMid meet">
<metadata>
Created by potrace 1.11, written by Peter Selinger 2001-2013
</metadata>
<g transform="translate(0.000000,1024.000000) scale(0.100000,-0.100000)"
fill="#000000" stroke="none">
<path d="M6538 8760 c-28 -28 -30 -35 -26 -82 4 -41 12 -57 35 -78 25 -23 43
-27 148 -38 487 -51 898 -283 1179 -666 191 -260 294 -546 317 -884 13 -188
14 -189 52 -212 52 -32 102 -27 144 15 l36 36 -6 157 c-29 745 -517 1410
-1226 1672 -170 62 -407 110 -549 110 -69 0 -76 -2 -104 -30z"/>
<path d="M6367 8179 c-23 -14 -47 -62 -47 -96 0 -33 31 -88 57 -101 10 -5 47
-13 83 -16 299 -31 540 -144 732 -344 201 -209 306 -447 324 -739 7 -112 16
-146 50 -168 34 -22 106 -19 137 5 39 31 46 72 36 205 -25 332 -162 630 -398
865 -206 206 -457 334 -750 385 -96 17 -198 19 -224 4z"/>
<path d="M3303 7328 c-380 -373 -621 -858 -695 -1398 -19 -139 -16 -488 5
-631 22 -145 65 -323 112 -459 42 -119 151 -351 215 -455 l43 -70 -31 -95
c-17 -52 -245 -755 -506 -1561 -262 -806 -476 -1473 -476 -1483 0 -30 29 -75
60 -91 26 -13 226 -15 1700 -15 l1672 0 28 29 c16 16 32 41 36 55 4 17 -56
409 -160 1048 -92 561 -166 1021 -164 1023 2 2 55 8 118 14 414 41 789 163
1139 373 102 62 262 180 326 242 46 43 47 47 43 90 -7 54 32 10 -513 585 -231
244 -419 449 -417 455 2 6 117 308 257 671 140 363 257 667 260 676 4 12 18
14 64 11 267 -19 531 241 531 524 -1 228 -179 444 -412 499 -252 59 -480 -52
-594 -289 -18 -38 -36 -88 -40 -112 -3 -25 -10 -47 -15 -49 -4 -3 -315 -46
-691 -95 -376 -50 -752 -100 -837 -111 l-153 -22 -43 44 c-23 24 -172 181
-330 349 -158 168 -299 315 -314 327 -18 16 -39 23 -70 23 -42 0 -48 -4 -148
-102z m1323 -1410 c643 -678 1325 -1396 1516 -1597 326 -345 345 -367 330
-384 -36 -40 -266 -183 -397 -248 -228 -111 -485 -186 -750 -219 -120 -15
-405 -15 -530 0 -439 52 -851 224 -1195 499 -709 565 -969 1513 -656 2386 83
230 243 507 392 679 38 43 75 87 83 97 7 11 19 19 26 19 7 0 539 -554 1181
-1232z m1927 1195 c222 -99 227 -398 8 -505 -69 -34 -196 -38 -253 -8 -87 44
-143 118 -173 225 -29 100 -17 161 43 227 88 97 239 121 375 61z m-617 -475
c30 -58 109 -147 170 -189 l42 -28 -242 -627 c-132 -344 -244 -627 -248 -627
-10 -3 -1260 1317 -1251 1320 5 1 298 41 653 87 630 84 843 112 847 115 2 0
14 -22 29 -51z m-2711 -2649 c449 -420 787 -599 1365 -724 118 -26 240 -52
270 -58 l55 -12 152 -930 c84 -511 152 -940 153 -953 l0 -22 -707 2 -708 3 -3
906 -2 906 -26 26 c-47 47 -126 45 -171 -5 -17 -19 -18 -68 -23 -927 l-5 -906
-659 -3 c-363 -1 -663 1 -666 5 -4 5 192 620 436 1368 243 748 445 1369 448
1379 6 23 12 19 91 -55z"/>
</g>
</svg>
